<svg width="97" height="96" viewBox="0 0 97 96" fill="none" xmlns="http://www.w3.org/2000/svg">
<g id="logo">
<path id="half-love" d="M35.8072 19.7607C36.2272 20.4747 37.1466 20.7131 37.8606 20.2931C38.5747 19.873 38.813 18.9537 38.393 18.2396L35.8072 19.7607ZM16.1001 10.5L16.8545 11.7965L16.1001 10.5ZM4.60012 48L3.23818 48.6286L3.23818 48.6286L4.60012 48ZM38.393 18.2396C35.8339 13.8892 32.6812 10.1432 28.814 8.227C24.8301 6.25293 20.2962 6.32322 15.3458 9.20348L16.8545 11.7965C21.0318 9.36602 24.4979 9.43638 27.482 10.9151C30.5829 12.4516 33.3663 15.6111 35.8072 19.7607L38.393 18.2396ZM15.3458 9.20348C1.74436 17.1171 -3.06503 34.9716 3.23818 48.6286L5.96206 47.3714C0.265276 35.0284 4.67506 18.8828 16.8545 11.7965L15.3458 9.20348ZM3.23818 48.6286C5.75284 54.077 11.7032 61.3571 18.2598 68.1308C24.8485 74.9377 32.2236 81.4101 37.7463 85.2334L39.4539 82.7669C34.1432 79.0902 26.9183 72.7625 20.4154 66.0443C13.8804 59.293 8.24741 52.323 5.96206 47.3714L3.23818 48.6286Z" fill="#FEFEFE"/>
<path id="ear" d="M36.1001 32.5001C33.6001 21 49.6181 2.00006 64.4905 2C86.6125 1.99991 92.8546 14.7161 94.0085 24.7126C95.6001 38.5 94.0085 48.5001 81.722 59.0493C72.5403 66.9327 64.5209 71.0645 59.6063 85.8846C57.3659 92.6404 44.6001 97 40.1001 88C34.1001 77.5 44.8625 75.3339 66.9782 56.0001C90.9905 35.0082 71.6001 11 60.9905 17.5001C52.6092 22.635 53.2612 27.8625 60.9905 32.5001C65.9905 35.5001 69.6001 39.0001 66.1001 46.0001C65.4335 47.1667 63.7001 49.6001 62.1001 50.0001C60.1001 50.5001 54.6001 50.0001 53.1001 52.5001C51.6001 55.0001 50.1001 58.5001 47.1001 56.0001C44.7001 54.0001 45.7668 51.8334 46.6001 51.0001C48.1001 50.3334 50.9001 48.7001 50.1001 47.5001C49.3001 46.3001 48.7668 45.3334 48.6001 45.0001" stroke="#FFFDFD" stroke-width="4" stroke-linecap="round" stroke-linejoin="round"/>
</g>
</svg>
